<svg xmlns="http://www.w3.org/2000/svg" viewBox="0 0 512 512" width="100%" height="100%">
  <defs>
    <linearGradient id="bg" x1="0%" y1="0%" x2="100%" y2="100%">
      <stop offset="0%" stop-color="#1E3A8A"/>
      <stop offset="100%" stop-color="#0F172A"/>
    </linearGradient>
  </defs>
  <circle cx="256" cy="256" r="240" fill="url(#bg)"/>
  <path d="M160 280 L256 220 L352 280 L256 340 Z" fill="#F97316"/>
  <path d="M160 280 L160 370 L256 420 L256 340 Z" fill="#EA580C"/>
  <path d="M352 280 L352 370 L256 420 L256 340 Z" fill="#C2410C"/>
  <path d="M220 100 L256 60 L292 100 L256 220 Z" fill="#FFFFFF"/>
  <path d="M256 120 L120 180 L120 210 L256 170 Z" fill="#E2E8F0"/>
  <path d="M256 120 L392 180 L392 210 L256 170 Z" fill="#CBD5E1"/>
  <path d="M256 200 L200 240 L200 255 L256 235 Z" fill="#94A3B8"/>
  <path d="M256 200 L312 240 L312 255 L256 235 Z" fill="#64748B"/>
</svg>
